<?xml version="1.0" standalone="no"?>
<!DOCTYPE svg PUBLIC "-//W3C//DTD SVG 20010904//EN"
 "http://www.w3.org/TR/2001/REC-SVG-20010904/DTD/svg10.dtd">
<svg version="1.0" xmlns="http://www.w3.org/2000/svg"
 width="369.000000pt" height="369.000000pt" viewBox="0 0 369.000000 369.000000"
 preserveAspectRatio="xMidYMid meet">
<metadata>
Created by potrace 1.14, written by Peter Selinger 2001-2017
</metadata>
<g transform="translate(0.000000,369.000000) scale(0.100000,-0.100000)"
fill="#000000" stroke="none">
<path d="M1445 3243 c-38 -8 -162 -35 -275 -60 -113 -24 -236 -52 -275 -60
-183 -39 -385 -95 -442 -123 -144 -71 -240 -220 -257 -400 -4 -36 -9 -81 -11
-100 -5 -37 -11 -108 -20 -230 -3 -41 -8 -95 -10 -120 -2 -25 -7 -88 -11 -140
-3 -52 -8 -108 -10 -125 -2 -16 -6 -102 -10 -191 -8 -183 -3 -209 53 -268 89
-94 168 -89 473 29 47 18 130 50 186 70 l100 37 75 -40 c183 -97 378 -198 734
-382 88 -45 210 -108 270 -140 61 -31 218 -113 350 -180 288 -147 415 -213
515 -267 41 -22 146 -77 234 -122 182 -95 184 -95 256 -12 57 64 58 65 76 110
26 66 28 63 -170 271 -44 47 -135 144 -201 214 -66 71 -133 143 -150 161 -16
17 -57 61 -90 96 -191 205 -339 362 -402 429 -39 41 -81 86 -93 100 -12 13
-53 58 -92 100 -39 41 -105 111 -147 155 -42 44 -134 143 -206 220 -71 76
-137 146 -145 155 -61 65 -90 102 -85 109 2 5 7 26 10 47 4 22 15 84 25 139
10 55 22 123 25 150 4 28 10 71 14 96 16 100 -3 178 -53 222 -70 61 -126 73
-241 50z"/>
</g>
</svg>
